<?xml version="1.0" encoding="utf-8"?>
<!-- Generator: Adobe Illustrator 24.0.0, SVG Export Plug-In . SVG Version: 6.00 Build 0)  -->
<svg version="1.1" id="Layer_1" xmlns="http://www.w3.org/2000/svg" xmlns:xlink="http://www.w3.org/1999/xlink" x="0px" y="0px"
	 viewBox="0 0 256 256" enable-background="new 0 0 256 256" xml:space="preserve">
<g>
</g>
<g>
	<path fill="#0BBE6E" d="M124.237,8.48L5.938,126.778c-3.353,3.353-0.978,9.086,3.763,9.086h25.821v107.892
		c0,2.939,2.383,5.322,5.322,5.322h174.31c2.939,0,5.322-2.383,5.322-5.322V135.864h25.821c4.742,0,7.116-5.733,3.763-9.086
		L131.764,8.48C129.685,6.401,126.315,6.401,124.237,8.48z"/>
	<path fill="#0E9B6D" d="M127.992,65.458c-32.21,0.038-58.247,25.796-59.541,57.042c-0.814,19.098,6.637,35.799,21.548,48.3
		c3.739,3.134,5.884,7.65,5.884,12.39c0,2.389-0.003-1.272-0.003,32.569c0,7.473,6.079,13.552,13.552,13.552h37.134
		c7.473,0,13.552-6.079,13.552-13.552c0-26.706,0.002-32.687,0.002-32.766c0-4.604,2.102-9.005,5.765-12.075
		c14.213-11.91,21.726-27.766,21.726-45.854C187.609,92.197,160.896,65.458,127.992,65.458z"/>
	<path fill="#AFAFAF" d="M102.88,187.71v28.049c0,3.616,2.935,6.552,6.552,6.552h37.134c3.616,0,6.552-2.935,6.552-6.552V187.71
		H102.88z"/>
	<path fill="#F0C020" d="M180.61,125.064c0,20.611-10.731,33.374-19.222,40.488c-5.176,4.337-8.268,10.679-8.268,17.44v4.717
		h-50.237v-4.52c0-6.879-3.119-13.339-8.386-17.755c-8.831-7.403-19.982-20.834-19.052-42.637
		C76.587,95.228,99.636,72.49,128,72.458C156.782,72.425,180.61,95.842,180.61,125.064z"/>
	<path fill="#F0C020" d="M64.153,41.577c-3.961-1.309-8.051-2.453-10.348-12.345c-2.115,9.112-5.504,10.745-10.348,12.345
		c7.9,2.61,9.092,6.933,10.348,12.345C55.97,44.592,59.551,43.097,64.153,41.577z"/>
	<path d="M51.215,54.523c-1.147-4.945-1.905-8.212-8.591-10.421c-2.43-0.803-2.424-4.25,0-5.051
		c4.025-1.33,6.684-2.209,8.591-10.422c0.633-2.73,4.546-2.737,5.181,0c1.95,8.399,4.863,9.193,8.591,10.421
		c2.43,0.803,2.424,4.25,0,5.051c-3.881,1.282-6.686,2.209-8.591,10.421C55.76,57.265,51.852,57.266,51.215,54.523z M49.695,41.638
		c1.914,1.314,3.222,2.815,4.164,4.403c1.141-2.017,2.462-3.405,3.934-4.439c-1.411-1.01-2.778-2.44-3.977-4.601
		C52.629,39.134,51.243,40.575,49.695,41.638z"/>
	<path fill="#F0C020" d="M212.542,41.577c-3.961-1.309-8.051-2.453-10.348-12.345c-2.115,9.112-5.504,10.745-10.348,12.345
		c7.9,2.61,9.092,6.933,10.348,12.345C204.359,44.592,207.94,43.097,212.542,41.577z"/>
	<path d="M199.603,54.523c-1.147-4.945-1.905-8.212-8.591-10.421c-2.43-0.803-2.424-4.25,0-5.051
		c4.025-1.33,6.684-2.209,8.591-10.422c0.633-2.73,4.546-2.737,5.181,0c1.95,8.399,4.863,9.193,8.591,10.421
		c2.43,0.803,2.424,4.25,0,5.051c-3.881,1.282-6.686,2.209-8.591,10.421C204.148,57.265,200.241,57.266,199.603,54.523z
		 M198.083,41.638c1.914,1.314,3.222,2.815,4.164,4.403c1.141-2.017,2.462-3.405,3.934-4.439c-1.411-1.01-2.778-2.44-3.977-4.601
		C201.018,39.134,199.632,40.575,198.083,41.638z"/>
	<path fill="#73FEBB" d="M210.478,241.579H58.523c-1.381,0-2.5-1.119-2.5-2.5s1.119-2.5,2.5-2.5h149.455V135.864
		c0-6.893,5.607-12.5,12.5-12.5h8.493L126.232,20.626c-0.977-0.976-0.977-2.559,0-3.535c0.977-0.977,2.559-0.977,3.535,0
		l107.006,107.006c1.569,1.569,0.458,4.268-1.768,4.268h-14.528c-4.136,0-7.5,3.364-7.5,7.5v103.215
		C212.978,240.46,211.858,241.579,210.478,241.579z M48.523,241.579h-3c-1.381,0-2.5-1.119-2.5-2.5s1.119-2.5,2.5-2.5h3
		c1.381,0,2.5,1.119,2.5,2.5S49.903,241.579,48.523,241.579z"/>
	<path fill="#EFEFEF" d="M143.117,214.81H125.88c-1.381,0-2.5-1.119-2.5-2.5s1.119-2.5,2.5-2.5h14.737V197.71
		c0-1.381,1.119-2.5,2.5-2.5s2.5,1.119,2.5,2.5v14.601C145.617,213.691,144.498,214.81,143.117,214.81z M115.88,214.81h-3
		c-1.381,0-2.5-1.119-2.5-2.5s1.119-2.5,2.5-2.5h3c1.381,0,2.5,1.119,2.5,2.5S117.261,214.81,115.88,214.81z"/>
	<path fill="#F7E4B0" d="M141.654,178.483c-1.352-0.283-2.218-1.607-1.936-2.959c0.22-1.051,0.489-2.102,0.8-3.122
		c0.402-1.321,1.799-2.063,3.12-1.663c1.32,0.402,2.065,1.799,1.663,3.12c-0.268,0.878-0.499,1.783-0.688,2.688
		C144.33,177.901,143.004,178.765,141.654,178.483z M145.78,166.202c-1.15-0.764-1.465-2.315-0.701-3.465
		c1.991-3.003,4.416-5.71,7.205-8.048c28.806-24.143,10.414-68.057-24.224-68.057c-1.381,0-2.5-1.119-2.5-2.5s1.119-2.5,2.5-2.5
		c39.396,0,59.722,49.83,27.435,76.889c-2.421,2.029-4.523,4.377-6.25,6.979C148.483,166.651,146.932,166.966,145.78,166.202z"/>
	<path d="M9.67,138.36h23.35v105.4c0,4.31,3.511,7.82,7.83,7.82h71.72c1.37,0,2.49-1.12,2.49-2.5c0-1.38-1.12-2.5-2.49-2.5H40.85
		c-1.56,0-2.83-1.27-2.83-2.82v-107.9c0-1.363-1.105-2.5-2.5-2.5H9.7c-2.535,0-3.769-3.032-1.99-4.81L126,10.25
		c1.11-1.11,2.89-1.11,4,0l59.1,59.1c0.94,0.94,2.59,0.94,3.53,0c0.97-0.98,0.979-2.56,0-3.54c0,0,0,0-0.01,0l-59.09-59.1
		c-3.117-3.094-8.048-3.012-11.061,0L4.17,125.01C-0.724,129.871,2.692,138.36,9.67,138.36z"/>
	<path d="M251.83,125.01L206.77,79.96c-0.939-0.95-2.59-0.95-3.529,0c-0.98,0.979-0.968,2.564,0,3.53l45.05,45.06
		c1.82,1.853,0.451,4.81-1.99,4.81h-25.82c-1.321,0-2.5,1.075-2.5,2.5v107.9c-0.01,1.55-1.27,2.82-2.83,2.82h-81.83
		c-1.55,0-2.819-1.27-2.819-2.82V224.81h16.065c4.991,0,9.052-4.061,9.052-9.052c0-26.728,0.003-32.677,0.003-32.769
		c0-5.93,2.689-11.59,7.37-15.52c40.282-33.576,15.801-97.51-34.931-97.51c-0.04,0-0.069,0-0.1,0h-0.021
		C112.383,70,97.818,76.575,87.43,87.92c-0.946,1.007-0.865,2.598,0.15,3.53c0.979,0.9,2.64,0.82,3.529-0.16
		c9.511-10.36,22.96-16.32,36.891-16.33h0.06c45.445,0,68.866,57.373,31.721,88.68c-5.82,4.87-9.16,11.93-9.16,19.35v2.22h-45.24
		v-2.02c0-7.56-3.38-14.73-9.28-19.67c-18.356-15.468-21.939-37.822-14.96-56.12c0.487-1.278-0.138-2.731-1.45-3.23
		c-1.25-0.48-2.75,0.2-3.22,1.44c-7.496,19.601-4.101,44.613,16.42,61.74c4.76,4,7.49,9.77,7.49,15.84c0,12.019,0,20.044,0,32.569
		c0,4.991,4.061,9.052,9.052,9.052H125.5v18.949c0,4.31,3.51,7.82,7.819,7.82h81.83c4.32,0,7.83-3.51,7.83-7.82v-105.4h23.32h0.03
		C253.241,138.36,256.755,129.937,251.83,125.01z M109.432,219.81c-2.234,0-4.052-1.817-4.052-4.052V190.21h45.237v11.425h-15.998
		c-1.381,0-2.5,1.119-2.5,2.5s1.119,2.5,2.5,2.5h15.998v9.124c0,2.234-1.817,4.052-4.052,4.052
		C145.491,219.81,119.561,219.81,109.432,219.81z"/>
	<path d="M199.7,76.42c0.976-0.977,0.973-2.568,0-3.54c-0.94-0.94-2.591-0.94-3.53,0c-0.98,0.98-0.98,2.56,0,3.54
		C197.145,77.395,198.724,77.394,199.7,76.42z"/>
	<path d="M81.92,99.69c1.124,0.692,2.681,0.409,3.439-0.81c0.708-1.151,0.401-2.697-0.81-3.44c-1.095-0.703-2.664-0.425-3.43,0.79
		l-0.011,0.01C80.401,97.395,80.709,98.926,81.92,99.69z"/>
	<path d="M131.59,101.5c-1.19-0.62-2.74-0.12-3.36,1.07c0,0,0,0,0,0.01l-13.55,26.36c-0.838,1.655,0.328,3.64,2.23,3.64H135
		l-8.895,17.325l-2.365-7.495c-0.386-1.229-1.671-2.053-3.141-1.64c-1.31,0.42-2.04,1.83-1.63,3.14l4.19,13.29
		c0.414,1.317,1.819,2.034,3.12,1.635c0.265-0.081,13.042-4.111,13.31-4.195c1.32-0.41,2.05-1.82,1.64-3.14
		c-0.41-1.28-1.84-2.04-3.14-1.63l-7.57,2.387l10.8-21.027c0.84-1.656-0.351-3.65-2.229-3.65H121l11.67-22.72
		C133.305,103.65,132.823,102.116,131.59,101.5z"/>
</g>
</svg>
